<svg xmlns="http://www.w3.org/2000/svg" fill="none" viewBox="0 0 24 24" id="Add-Reaction--Streamline-Rounded-Material" height="24" width="24">
  <desc>
    Add Reaction Streamline Icon: https://streamlinehq.com
  </desc>
  <path fill="#000000" d="M12.00675 22c-1.379 0 -2.67485 -0.2625 -3.8875 -0.7875 -1.21285 -0.525 -2.2734 -1.24165 -3.18175 -2.15 -0.908335 -0.90835 -1.625 -1.9689 -2.15 -3.18175C2.2625 14.6681 2 13.37225 2 11.99325c0 -1.37885 0.263335 -2.6766 0.79 -3.89325s1.241415 -2.275 2.14425 -3.175c0.90285 -0.9 1.9645 -1.6125 3.185 -2.1375C9.33975 2.2625 10.63335 2 12 2c0.65 0 1.2786 0.058335 1.88575 0.175 0.607 0.116665 1.1951 0.291665 1.76425 0.525 0.28335 0.116665 0.45835 0.270835 0.525 0.4625 0.06665 0.191665 0.06665 0.379165 0 0.5625 -0.06665 0.183335 -0.17915 0.320835 -0.3375 0.4125 -0.15835 0.091665 -0.3375 0.095835 -0.5375 0.0125 -0.51665 -0.216665 -1.05 -0.379165 -1.6 -0.4875C13.15 3.554165 12.58335 3.5 12 3.5c-2.35515 0 -4.36065 0.825 -6.0165 2.475C4.327835 7.625 3.5 9.62925 3.5 11.98775c0 2.35865 0.829085 4.367 2.48725 6.025C7.64525 19.6709 9.6536 20.5 12.01225 20.5c2.3585 0 4.36275 -0.82785 6.01275 -2.4835C19.675 16.36065 20.5 14.35515 20.5 12c0 -0.3945 -0.025 -0.7889 -0.075 -1.18325 -0.05 -0.3945 -0.13335 -0.7834 -0.25 -1.16675 -0.06665 -0.21665 -0.04165 -0.4 0.075 -0.55 0.11665 -0.15 0.26825 -0.25 0.45475 -0.3 0.18635 -0.05 0.36965 -0.02915 0.55 0.0625 0.18015 0.09165 0.3119 0.27085 0.39525 0.5375 0.11665 0.41665 0.20415 0.841 0.2625 1.273 0.05835 0.432 0.0875 0.87435 0.0875 1.327 0 1.36665 -0.2625 2.66025 -0.7875 3.88075 -0.525 1.2205 -1.2375 2.28215 -2.1375 3.185 -0.9 0.90285 -1.95835 1.6176 -3.175 2.14425 -1.21665 0.52665 -2.5144 0.79 -3.89325 0.79ZM20.25 4.75h-1.5c-0.2125 0 -0.3906 -0.072335 -0.53425 -0.217C18.0719 4.3885 18 4.209335 18 3.9955c0 -0.213665 0.0719 -0.391335 0.21575 -0.533 0.14365 -0.141665 0.32175 -0.2125 0.53425 -0.2125h1.5v-1.5c0 -0.2125 0.07235 -0.390665 0.217 -0.5345 0.1445 -0.143665 0.32365 -0.2155 0.5375 -0.2155 0.21365 0 0.39135 0.071835 0.533 0.2155 0.14165 0.143835 0.2125 0.322 0.2125 0.5345v1.5h1.5c0.2125 0 0.39065 0.072335 0.5345 0.217 0.14365 0.1445 0.2155 0.323665 0.2155 0.5375 0 0.213665 -0.07185 0.391335 -0.2155 0.533 -0.14385 0.141665 -0.322 0.2125 -0.5345 0.2125h-1.5v1.5c0 0.2125 -0.07235 0.3906 -0.217 0.53425 -0.1445 0.14385 -0.32365 0.21575 -0.5375 0.21575 -0.21365 0 -0.39135 -0.0719 -0.533 -0.21575 -0.14165 -0.14365 -0.2125 -0.32175 -0.2125 -0.53425v-1.5Zm-4.6 5.925c0.375 0 0.69375 -0.13125 0.95625 -0.39375 0.2625 -0.2625 0.39375 -0.58125 0.39375 -0.95625s-0.13125 -0.69375 -0.39375 -0.95625c-0.2625 -0.2625 -0.58125 -0.39375 -0.95625 -0.39375s-0.69375 0.13125 -0.95625 0.39375c-0.2625 0.2625 -0.39375 0.58125 -0.39375 0.95625s0.13125 0.69375 0.39375 0.95625c0.2625 0.2625 0.58125 0.39375 0.95625 0.39375Zm-7.3 0c0.375 0 0.69375 -0.13125 0.95625 -0.39375 0.2625 -0.2625 0.39375 -0.58125 0.39375 -0.95625s-0.13125 -0.69375 -0.39375 -0.95625c-0.2625 -0.2625 -0.58125 -0.39375 -0.95625 -0.39375s-0.69375 0.13125 -0.95625 0.39375C7.13125 8.63125 7 8.95 7 9.325s0.13125 0.69375 0.39375 0.95625c0.2625 0.2625 0.58125 0.39375 0.95625 0.39375Zm3.6375 6.8c0.95835 0 1.84165 -0.21665 2.65 -0.65 0.80835 -0.43335 1.4625 -1.03665 1.9625 -1.81 0.1 -0.19335 0.09375 -0.38165 -0.01875 -0.565 -0.1125 -0.18335 -0.28125 -0.275 -0.50625 -0.275H7.923c-0.232 0 -0.40215 0.09165 -0.5105 0.275 -0.10835 0.18335 -0.1125 0.37165 -0.0125 0.565 0.5 0.77335 1.15415 1.37665 1.9625 1.81 0.80835 0.43335 1.68335 0.65 2.625 0.65Z" stroke-width="0.5"></path>
</svg>