<svg width="352" height="352" viewBox="0 0 352 352" fill="none" xmlns="http://www.w3.org/2000/svg">
<g clip-path="url(#clip0_2552_1850)">
<path d="M337.331 278.667C337.331 286.446 334.24 293.907 328.739 299.408C323.238 304.91 315.777 308 307.997 308H43.9974C36.2177 308 28.7567 304.91 23.2556 299.408C17.7545 293.907 14.6641 286.446 14.6641 278.667V117.333C14.6641 109.554 17.7545 102.093 23.2556 96.5915C28.7567 91.0905 36.2177 88 43.9974 88H102.664L131.997 44H219.997L249.331 88H307.997C315.777 88 323.238 91.0905 328.739 96.5915C334.24 102.093 337.331 109.554 337.331 117.333V278.667Z" stroke="#1E1E1E" stroke-width="30" stroke-linecap="round" stroke-linejoin="round"/>
<path d="M175.997 249.333C208.398 249.333 234.664 223.067 234.664 190.667C234.664 158.266 208.398 132 175.997 132C143.597 132 117.331 158.266 117.331 190.667C117.331 223.067 143.597 249.333 175.997 249.333Z" stroke="#1E1E1E" stroke-width="30" stroke-linecap="round" stroke-linejoin="round"/>
</g>
<defs>
<clipPath id="clip0_2552_1850">
<rect width="352" height="352" fill="white"/>
</clipPath>
</defs>
</svg>
