<svg width="352" height="352" viewBox="0 0 352 352" fill="none" xmlns="http://www.w3.org/2000/svg">
<g clip-path="url(#clip0_2571_1832)">
<path d="M263.117 263.117C238.046 282.228 207.518 292.815 175.997 293.331C73.3307 293.331 14.6641 175.997 14.6641 175.997C32.9078 141.999 58.2114 112.294 88.8774 88.8774M145.197 62.1841C155.293 59.821 165.629 58.6397 175.997 58.6641C278.664 58.6641 337.331 175.997 337.331 175.997C328.428 192.653 317.81 208.333 305.651 222.784M207.091 207.091C203.063 211.414 198.205 214.881 192.808 217.286C187.41 219.691 181.584 220.984 175.676 221.088C169.768 221.192 163.9 220.106 158.421 217.893C152.942 215.68 147.965 212.386 143.787 208.208C139.609 204.029 136.315 199.053 134.102 193.574C131.889 188.095 130.802 182.227 130.907 176.319C131.011 170.411 132.304 164.584 134.709 159.187C137.114 153.79 140.581 148.932 144.904 144.904M14.6641 14.6641L337.331 337.331" stroke="#1E1E1E" stroke-width="30" stroke-linecap="round" stroke-linejoin="round"/>
</g>
<defs>
<clipPath id="clip0_2571_1832">
<rect width="352" height="352" fill="white"/>
</clipPath>
</defs>
</svg>
