<svg width="352" height="352" viewBox="0 0 352 352" fill="none" xmlns="http://www.w3.org/2000/svg">
<path d="M305.65 67.6167C298.159 60.1221 289.264 54.1768 279.475 50.1206C269.686 46.0643 259.193 43.9766 248.597 43.9766C238 43.9766 227.507 46.0643 217.718 50.1206C207.929 54.1768 199.034 60.1221 191.543 67.6167L175.997 83.1633L160.45 67.6167C145.318 52.4852 124.796 43.9844 103.397 43.9844C81.9974 43.9844 61.4747 52.4852 46.3432 67.6167C31.2117 82.7482 22.7109 103.271 22.7109 124.67C22.7109 146.069 31.2117 166.592 46.3432 181.723L175.997 311.377L305.65 181.723C313.144 174.232 319.09 165.338 323.146 155.549C327.202 145.759 329.29 135.266 329.29 124.67C329.29 114.074 327.202 103.581 323.146 93.7915C319.09 84.0021 313.144 75.1078 305.65 67.6167Z" fill="#1E1E1E" stroke="#1E1E1E" stroke-width="30" stroke-linecap="round" stroke-linejoin="round"/>
</svg>
