<svg width="352" height="352" viewBox="0 0 352 352" fill="none" xmlns="http://www.w3.org/2000/svg">
<path d="M73.3333 308H278.667C294.867 308 308 294.867 308 278.667V73.3333C308 57.133 294.867 44 278.667 44H73.3333C57.133 44 44 57.133 44 73.3333V278.667C44 294.867 57.133 308 73.3333 308ZM73.3333 308L234.667 146.667L308 220M146.667 124.667C146.667 136.817 136.817 146.667 124.667 146.667C112.516 146.667 102.667 136.817 102.667 124.667C102.667 112.516 112.516 102.667 124.667 102.667C136.817 102.667 146.667 112.516 146.667 124.667Z" stroke="#1E1E1E" stroke-width="30" stroke-linecap="round" stroke-linejoin="round"/>
</svg>
