<svg width="352" height="352" viewBox="0 0 352 352" fill="none" xmlns="http://www.w3.org/2000/svg">
<path d="M308.002 187.587C305.695 212.552 296.326 236.345 280.99 256.18C265.654 276.014 244.987 291.072 221.406 299.589C197.825 308.107 172.306 309.732 147.835 304.276C123.364 298.82 100.953 286.507 83.2244 268.778C65.4958 251.049 53.1829 228.638 47.7264 204.167C42.27 179.696 43.8956 154.177 52.4132 130.596C60.9308 107.015 75.988 86.348 95.8229 71.0124C115.658 55.6767 139.45 46.3071 164.416 44C149.799 63.7746 142.766 88.1386 144.594 112.661C146.423 137.183 156.992 160.234 174.38 177.622C191.768 195.01 214.82 205.58 239.342 207.408C263.864 209.237 288.228 202.203 308.002 187.587Z" stroke="black" stroke-width="30" stroke-linecap="round" stroke-linejoin="round"/>
</svg>
