<svg width="352" height="352" viewBox="0 0 352 352" fill="none" xmlns="http://www.w3.org/2000/svg">
<g clip-path="url(#clip0_2319_808)">
<path d="M14.6641 58.6705V146.67M14.6641 146.67H102.664M14.6641 146.67L82.7174 82.7238C102.971 62.5046 129.247 49.4154 157.586 45.4282C185.925 41.441 214.793 46.7719 239.839 60.6177C264.885 74.4635 284.753 96.074 296.449 122.193C308.145 148.313 311.036 177.525 304.686 205.43C298.336 233.335 283.089 258.421 261.242 276.907C239.395 295.393 212.132 306.278 183.561 307.923C154.99 309.567 126.658 301.882 102.835 286.024C79.0116 270.166 60.9872 246.996 51.4774 220.004" stroke="white" stroke-width="30" stroke-linecap="round" stroke-linejoin="round"/>
</g>
<defs>
<clipPath id="clip0_2319_808">
<rect width="352" height="352" fill="white"/>
</clipPath>
</defs>
</svg>
