<svg width="352" height="352" viewBox="0 0 352 352" fill="none" xmlns="http://www.w3.org/2000/svg">
<g clip-path="url(#clip0_2319_808)">
<path d="M337.336 58.6705V146.67M337.336 146.67H249.336M337.336 146.67L269.283 82.7238C249.029 62.5046 222.753 49.4154 194.414 45.4282C166.075 41.441 137.207 46.7719 112.161 60.6177C87.1149 74.4635 67.247 96.074 55.5508 122.193C43.8546 148.313 40.9639 177.525 47.314 205.43C53.6642 233.335 68.9113 258.421 90.7581 276.907C112.605 295.393 139.868 306.278 168.439 307.923C197.01 309.567 225.342 301.882 249.165 286.024C272.988 270.166 291.013 246.996 300.523 220.004" stroke="white" stroke-width="30" stroke-linecap="round" stroke-linejoin="round"/>
</g>
<defs>
<clipPath id="clip0_2319_808">
<rect width="352" height="352" fill="white" transform="matrix(-1 0 0 1 352 0)"/>
</clipPath>
</defs>
</svg>
