<svg width="221" height="252" viewBox="0 0 221 252" fill="none" xmlns="http://www.w3.org/2000/svg">
<path d="M57.6172 251.953V232.617H68.3594C76.5625 232.617 82.3568 232.031 85.7422 230.859C89.1276 229.557 91.1458 227.865 91.7969 225.781C92.4479 223.698 92.7734 221.484 92.7734 219.141V22.2656H50.3906C40.625 22.2656 33.6589 22.6562 29.4922 23.4375C25.3255 24.2188 22.7214 25.3906 21.6797 26.9531C20.7682 28.5156 20.3125 30.5339 20.3125 33.0078C20.3125 36.9141 20.3125 41.4062 20.3125 46.4844C20.4427 51.4323 20.5078 56.4453 20.5078 61.5234C20.5078 66.6016 20.5078 71.224 20.5078 75.3906H0V0C0 0 3.1901 0.0651042 9.57031 0.195312C15.9505 0.195312 23.6979 0.260417 32.8125 0.390625C41.9271 0.390625 50.7161 0.390625 59.1797 0.390625C67.6432 0.390625 73.9583 0.390625 78.125 0.390625H153.516C159.505 0.390625 166.602 0.390625 174.805 0.390625C183.008 0.260417 191.146 0.195312 199.219 0.195312C207.422 0.0651042 214.453 0 220.312 0V75.3906H199.609V35.1562C199.609 31.5104 199.089 28.776 198.047 26.9531C197.135 25.1302 194.466 23.8932 190.039 23.2422C185.612 22.5911 178.19 22.2656 167.773 22.2656H128.32V221.289C128.32 224.154 128.646 226.432 129.297 228.125C130.078 229.688 132.161 230.859 135.547 231.641C138.932 232.292 144.596 232.617 152.539 232.617H163.477V251.953C155.924 251.953 148.372 251.953 140.82 251.953C133.398 251.823 124.219 251.693 113.281 251.562C112.5 251.562 109.831 251.628 105.273 251.758C100.846 251.758 95.5729 251.758 89.4531 251.758C83.4635 251.758 77.5391 251.823 71.6797 251.953C65.8203 251.953 61.1328 251.953 57.6172 251.953Z" fill="black"/>
</svg>
