<svg width="3025" height="1222" viewBox="0 0 3025 1222" fill="none" xmlns="http://www.w3.org/2000/svg">
<path d="M414.258 230.029C460.514 248.486 483.643 280.615 483.643 326.416C483.643 368.799 467.578 402.295 435.449 426.904C402.181 452.425 356.722 465.186 299.072 465.186H267.627V0H293.945C350.684 0 394.775 14.0137 426.221 42.041C455.387 68.0176 469.971 101.058 469.971 141.162C469.971 181.038 451.628 210.661 414.941 230.029H414.258ZM68.3594 230.029C31.901 210.889 13.6719 181.722 13.6719 142.529C13.6719 101.514 28.2552 68.0176 57.4219 42.041C88.8672 14.0137 132.959 0 189.697 0H216.016V465.186H184.57C126.921 465.186 81.4616 452.425 48.1934 426.904C16.0645 402.295 0 368.001 0 324.023C0 279.818 23.0143 248.486 69.043 230.029H68.3594Z" fill="white"/>
<path d="M772.256 0H798.916C867.503 0 915.697 17.8874 943.496 53.6621C969.701 87.1582 982.803 142.301 982.803 219.092C982.803 303.174 969.701 364.242 943.496 402.295C914.785 444.222 866.592 465.186 798.916 465.186H772.256V0ZM505.996 221.143C505.996 182.406 508.958 149.365 514.883 122.021C521.035 94.4499 531.175 71.6634 545.303 53.6621C573.102 17.8874 621.296 0 689.883 0H716.543V465.186H689.883C622.207 465.186 574.014 444.222 545.303 402.295C519.098 364.242 505.996 303.857 505.996 221.143Z" fill="white"/>
<path d="M266.648 493.553H455.32V842.186H433.787C374.542 842.186 331.932 831.818 305.955 811.082C279.751 790.118 266.648 755.483 266.648 707.176V493.553ZM19.8711 671.971C19.8711 646.906 23.1751 623.663 29.7832 602.244C36.3913 580.597 46.6452 561.684 60.5449 545.506C90.623 510.87 133.689 493.553 189.744 493.553H216.062V842.186H198.289C140.867 842.186 96.4336 826.463 64.9883 795.018C34.9102 764.939 19.8711 723.924 19.8711 671.971Z" fill="white"/>
<path d="M720.623 493.553H751.385C835.239 493.553 885.255 522.036 901.434 579.002C906.902 597.459 909.637 618.764 909.637 642.918V842.186H720.623V493.553ZM474.188 493.553H664.227V842.186H474.188V493.553Z" fill="white"/>
<path d="M962.342 624.803C961.658 622.068 961.089 619.106 960.633 615.916L959.266 606.346C958.354 599.51 957.898 591.535 957.898 582.42C957.898 573.077 959.949 562.368 964.051 550.291C968.38 538.214 975.33 527.732 984.9 518.846C1005.41 499.705 1037.08 490.135 1079.92 490.135L1333.88 713.328C1336.15 721.531 1337.29 732.469 1337.29 746.141C1337.29 759.585 1335.01 772.459 1330.46 784.764C1325.9 796.84 1318.61 807.322 1308.58 816.209C1287.16 835.805 1255.95 845.604 1214.93 845.604L964.734 624.803H962.342ZM1339.69 493.553C1346.52 504.035 1349.94 518.39 1349.94 536.619C1349.94 570.343 1337.29 595.522 1312 612.156L1174.94 493.553H1339.69ZM952.43 842.186C945.594 831.704 942.176 817.348 942.176 799.119C942.176 765.623 954.708 740.558 979.773 723.924L1117.18 842.186H952.43Z" fill="white"/>
<path d="M1459.11 872.553H1489.87C1573.73 872.553 1623.74 901.036 1639.92 958.002C1645.39 976.459 1648.12 997.764 1648.12 1021.92V1221.19H1459.11V872.553ZM1205.5 872.553H1236.26C1320.11 872.553 1370.13 901.036 1386.31 958.002C1391.78 976.459 1394.51 997.764 1394.51 1021.92V1221.19H1205.5V872.553ZM951.201 872.553H1141.24V1221.19H951.201V872.553Z" fill="white"/>
<path d="M1927.44 872.553H2116.11V1221.19H2094.58C2035.34 1221.19 1992.72 1210.82 1966.75 1190.08C1940.54 1169.12 1927.44 1134.48 1927.44 1086.18V872.553ZM1680.66 1050.97C1680.66 1025.91 1683.97 1002.66 1690.58 981.244C1697.18 959.597 1707.44 940.684 1721.34 924.506C1751.42 889.87 1794.48 872.553 1850.54 872.553H1876.86V1221.19H1859.08C1801.66 1221.19 1757.23 1205.46 1725.78 1174.02C1695.7 1143.94 1680.66 1102.92 1680.66 1050.97Z" fill="white"/>
<path d="M2381.42 872.553H2412.18C2496.03 872.553 2546.05 901.036 2562.23 958.002C2567.7 976.459 2570.43 997.764 2570.43 1021.92V1221.19H2381.42V872.553ZM2134.98 872.553H2325.02V1221.19H2134.98V872.553Z" fill="white"/>
<path d="M2836.07 872.553H3024.75V1221.19H3003.21C2943.97 1221.19 2901.36 1210.82 2875.38 1190.08C2849.18 1169.12 2836.07 1134.48 2836.07 1086.18V872.553ZM2589.3 1050.97C2589.3 1025.91 2592.6 1002.66 2599.21 981.244C2605.82 959.597 2616.07 940.684 2629.97 924.506C2660.05 889.87 2703.12 872.553 2759.17 872.553H2785.49V1221.19H2767.71C2710.29 1221.19 2665.86 1205.46 2634.41 1174.02C2604.34 1143.94 2589.3 1102.92 2589.3 1050.97Z" fill="white"/>
</svg>
